<svg id="Capa_1" enable-background="new 0 0 512.001 512.001" height="512" viewBox="0 0 512.001 512.001" width="512" xmlns="http://www.w3.org/2000/svg"><g><path d="m384.271 110.138-5.793-1.782c-13.379-4.116-19.122-19.854-11.561-31.634 19.083-29.73 48.856-68.563 54.992-76.511-.411-.251-.947-.3-1.437-.026l-73.819 41.203c-8.927 4.982-18.979 7.598-29.202 7.598h-122.901c-10.223 0-20.276-2.616-29.202-7.598l-73.819-41.204c-.49-.273-1.026-.224-1.437.026 6.136 7.949 35.909 46.781 54.992 76.511 7.561 11.78 1.818 27.518-11.561 31.634l-5.793 1.782s-147.866 45.49-72.248 269.892c.389 1.155 2.043 1.101 2.355-.077 2.163-8.171 7.569-27.457 14.458-43.842.429-1.021 1.872-1.005 2.282.024 7.748 19.462 26.154 50.765 40.85 69.689 55.434 71.386 140.573 106.178 140.573 106.178s85.139-34.792 140.574-106.177c14.696-18.925 33.102-50.227 40.85-69.689.41-1.029 1.852-1.045 2.282-.024 6.89 16.386 12.295 35.671 14.458 43.842.312 1.178 1.966 1.232 2.355.077 75.618-224.401-72.248-269.892-72.248-269.892z" fill="#f1f1f4"/><g><path d="m386.059 105.031c-3.945 0-7.317-3-7.701-7.006-.408-4.258 2.712-8.041 6.971-8.449l52.517-5.036c4.261-.411 8.041 2.713 8.449 6.971s-2.712 8.041-6.971 8.449l-52.517 5.036c-.251.023-.501.035-.748.035z" fill="#f1f1f4"/></g><g><path d="m398.463 77.127c-3.325 0-6.399-2.158-7.411-5.506-1.238-4.094 1.078-8.417 5.173-9.655l49.399-14.935c4.093-1.237 8.417 1.078 9.655 5.173 1.238 4.094-1.078 8.417-5.173 9.655l-49.399 14.935c-.746.226-1.502.333-2.244.333z" fill="#f1f1f4"/></g><g><path d="m115.427 405.823c-7.511-9.672-15.991-22.577-23.521-35.482-14.803 24.335-30.086 58.509-30.086 95.883v41.043c0 2.614 2.119 4.734 4.734 4.734h189.446s-85.139-34.792-140.573-106.178z" fill="#f1f1f4"/></g><path d="m115.427 405.823c-7.511-9.672-15.991-22.577-23.521-35.482-4.009 6.591-8.053 13.904-11.82 21.806 28.374 34.262 63.163 59.534 90.349 76.036 10.939 6.64 6.201 23.471-6.596 23.471h-102.019v15.613c0 2.614 2.119 4.734 4.734 4.734h189.446s-85.139-34.792-140.573-106.178z" fill="#dfdde2"/><g><path d="m396.574 405.823c-55.435 71.386-140.574 106.178-140.574 106.178h189.446c2.614 0 4.734-2.119 4.734-4.734v-41.043c0-37.373-15.282-71.548-30.085-95.882-7.53 12.905-16.01 25.81-23.521 35.481z" fill="#f1f1f4"/></g><g><path d="m420.096 370.341c-5.92 10.145-12.426 20.289-18.588 28.863 4.478 14.488 7.365 30.124 7.365 46.365v7.091c0 21.366-17.32 38.686-38.686 38.686h-74.022c-23.445 13.822-40.165 20.655-40.165 20.655h189.446c2.614 0 4.734-2.119 4.734-4.734v-41.043c0-37.374-15.282-71.548-30.084-95.883z" fill="#dfdde2"/></g><g><path d="m256 337.037c-11.785 0-23.569-3.035-32.966-9.105-3.593-2.321-4.624-7.115-2.303-10.708 2.322-3.594 7.117-4.624 10.708-2.303 13.543 8.748 35.58 8.748 49.123 0 3.591-2.323 8.387-1.29 10.708 2.303s1.29 8.388-2.303 10.708c-9.397 6.07-21.182 9.105-32.967 9.105z" fill="#dfdde2"/></g><path d="m363.963 270.834c-6.216-10.856-20.304-30.64-44.81-41.166-3.93-1.688-8.485.13-10.173 4.06-1.688 3.931.13 8.485 4.06 10.173 20.225 8.687 32.199 25.708 36.896 33.627-5.359 3.649-11.372 6.248-17.88 7.726-12.241 2.78-25.623-.172-34.092-7.521-9.945-8.629-22.493-15.053-31.268-18.923-1.916-.845-2.95-2.08-2.95-2.813v-11.91c0-4.278-3.468-7.745-7.745-7.745-4.278 0-7.745 3.468-7.745 7.745v11.91c0 .733-1.034 1.968-2.95 2.813-8.775 3.87-21.322 10.294-31.268 18.923-8.469 7.349-21.852 10.302-34.092 7.521-6.508-1.478-12.521-4.076-17.88-7.726 4.698-7.92 16.671-24.94 36.896-33.627 3.93-1.688 5.748-6.243 4.06-10.173s-6.242-5.747-10.173-4.06c-24.505 10.525-38.593 30.309-44.81 41.167-3.762 6.571-1.692 14.659 4.922 19.231 7.065 4.885 14.991 8.348 23.555 10.294 4.108.932 8.32 1.385 12.521 1.385 13.075 0 26.018-4.385 35.153-12.311 8.935-7.752 20.981-13.634 27.367-16.45 1.624-.716 3.105-1.589 4.445-2.577 1.34.988 2.821 1.861 4.445 2.577 6.386 2.816 18.432 8.698 27.367 16.45 9.136 7.927 22.077 12.311 35.153 12.311 4.2 0 8.415-.452 12.521-1.385 8.564-1.945 16.489-5.409 23.555-10.293 6.612-4.572 8.682-12.661 4.92-19.233z" fill="#dfdde2"/><path d="m272.098 124.189-8.353-8.353v-24.46c0-4.278-3.468-7.745-7.745-7.745-4.278 0-7.745 3.468-7.745 7.745v24.461l-8.353 8.352c-3.025 3.024-3.025 7.928 0 10.953 1.512 1.513 3.494 2.269 5.477 2.269 1.982 0 3.964-.756 5.477-2.269l5.145-5.145 5.145 5.145c1.512 1.513 3.494 2.269 5.477 2.269s3.964-.756 5.477-2.269c3.023-3.025 3.023-7.928-.002-10.953z" fill="#dfdde2"/><g><path d="m256 512.001c-1.877 0-3.753-.688-5.221-2.066-1.548-1.453-38.199-36.402-62.318-107.715-1.35-3.992.791-8.322 4.783-9.672 3.991-1.351 8.322.791 9.672 4.783 17.539 51.856 42.385 83.781 53.085 95.91 10.692-12.121 35.542-44.045 53.084-95.91 1.35-3.992 5.679-6.135 9.672-4.783 3.992 1.35 6.133 5.68 4.783 9.672-24.119 71.313-60.77 106.262-62.318 107.715-1.469 1.377-3.345 2.066-5.222 2.066z" fill="#dfdde2"/></g><path d="m35.371 291.535c.961 9.581 2.432 19.644 4.473 30.21 26.644-78.273 80.073-100.375 80.776-100.658 3.972-1.561 5.934-6.043 4.383-10.021-1.554-3.985-6.044-5.955-10.029-4.403-2.087.814-48.775 19.663-79.603 84.872z" fill="#dfdde2"/><path d="m476.63 291.535c-.961 9.581-2.432 19.644-4.473 30.21-26.644-78.273-80.073-100.375-80.776-100.658-3.972-1.561-5.934-6.043-4.383-10.021 1.554-3.985 6.044-5.955 10.029-4.403 2.087.814 48.775 19.663 79.603 84.872z" fill="#dfdde2"/><path d="m472.157 321.745c2.041-10.566 3.512-20.628 4.473-30.21-12.125-25.647-26.703-44.122-40.056-57.15.269 7.224.218 14.788-.195 22.708 12.92 15.251 26.112 36.255 35.778 64.652z" fill="#c6c1c8"/><g><path d="m323.174 278.729c-1.417 0-2.852-.389-4.137-1.204l-30.225-19.149c-3.613-2.289-4.687-7.074-2.398-10.687 2.289-3.614 7.074-4.688 10.687-2.398l30.225 19.149c3.613 2.289 4.687 7.074 2.398 10.687-1.474 2.328-3.984 3.602-6.55 3.602z" fill="#dfdde2"/></g><g><path d="m188.826 278.729c-2.566 0-5.076-1.274-6.55-3.601-2.289-3.613-1.216-8.398 2.398-10.687l30.225-19.149c3.613-2.291 8.399-1.216 10.687 2.398 2.289 3.613 1.216 8.398-2.398 10.687l-30.225 19.149c-1.285.814-2.72 1.203-4.137 1.203z" fill="#dfdde2"/></g><g><path d="m125.942 105.031c-.248 0-.497-.012-.748-.036l-52.517-5.036c-4.258-.408-7.379-4.191-6.971-8.449s4.19-7.384 8.449-6.971l52.517 5.036c4.258.408 7.379 4.191 6.971 8.449-.384 4.007-3.757 7.007-7.701 7.007z" fill="#f1f1f4"/></g><g><path d="m113.538 77.127c-.742 0-1.497-.107-2.244-.333l-49.4-14.935c-4.094-1.238-6.41-5.561-5.173-9.655 1.238-4.094 5.562-6.41 9.655-5.173l49.399 14.935c4.094 1.238 6.41 5.561 5.173 9.655-1.011 3.347-4.085 5.506-7.41 5.506z" fill="#f1f1f4"/></g><g><path d="m224.005 192.994c-4.278 0-7.745-3.468-7.745-7.745v-5.46c0-3.412-2.301-6.411-5.597-7.294l-51.314-13.75c-4.132-1.107-6.584-5.354-5.477-9.486 1.108-4.132 5.357-6.578 9.486-5.477l51.314 13.75c10.055 2.694 17.078 11.846 17.078 22.257v5.46c0 4.278-3.467 7.745-7.745 7.745z" fill="#665e66"/></g><g><path d="m287.996 192.994c-4.278 0-7.745-3.468-7.745-7.745v-5.46c0-10.411 7.023-19.564 17.079-22.257l51.313-13.75c4.135-1.103 8.379 1.345 9.486 5.477s-1.345 8.379-5.477 9.486l-51.313 13.75c-3.296.883-5.598 3.882-5.598 7.294v5.46c0 4.278-3.468 7.745-7.745 7.745z" fill="#665e66"/></g><g><path d="m254.85 252.457-21.393-21.393c-2.494-2.494-2.205-6.679.683-8.704 13.082-9.175 30.638-9.175 43.72 0 2.888 2.025 3.178 6.21.683 8.704l-21.393 21.393c-.635.636-1.665.636-2.3 0z" fill="#e490b7"/></g><path d="m145.074 76.708c-19.083-29.728-48.847-68.55-54.982-76.497-.465.284-.769.825-.667 1.45 2.433 14.772 14.565 81.83 38.305 108.477l5.793-1.782c13.385-4.118 19.116-19.863 11.551-31.648z" fill="#e490b7"/><path d="m421.909.211c-6.135 7.947-35.9 46.769-54.983 76.498-7.565 11.785-1.833 27.53 11.552 31.648l5.793 1.782c23.74-26.647 35.873-93.705 38.305-108.477.102-.626-.202-1.168-.667-1.451z" fill="#e490b7"/><path d="m364.683 99.974c1.737 1.06 3.539 2.213 5.391 3.464-6.996-6.707-8.852-17.844-3.148-26.73 19.083-29.729 48.847-68.55 54.983-76.498-.411-.251-.947-.3-1.437-.026l-49.527 27.644c-3.909 14.04-8.919 28.915-15.096 41.521-5.389 11-1.621 24.243 8.834 30.625z" fill="#dfdde2"/><path d="m384.271 110.138-5.793-1.782c-1.185-.364-2.309-.82-3.37-1.356 36.192 26.8 85.43 89.795 48.597 224.596-1.007 3.684-3.954 6.637-7.705 7.353-4.953.946-9.702-1.924-11.25-6.546l-.039-.117c-.702-2.097-2.156-3.897-4.134-4.886-4.521-2.261-9.578-.35-11.649 3.739-9.148 18.064-22.479 39.63-33.661 54.03-52.565 67.69-131.838 102.477-139.905 105.897 23.693 14.01 40.638 20.935 40.638 20.935s85.139-34.792 140.574-106.177c14.696-18.925 33.102-50.227 40.85-69.689.41-1.029 1.852-1.045 2.282-.024 6.89 16.386 12.295 35.671 14.458 43.842.312 1.178 1.966 1.232 2.355.077 75.618-224.401-72.248-269.892-72.248-269.892z" fill="#dfdde2"/><path d="m313.238 429.039c-9.327 8.059-18.72 15.327-27.807 21.808-11.803 21.094-23.099 35.216-29.43 42.393-3.169-3.593-7.58-8.922-12.674-15.992-5.144 2.818-9.771 5.211-13.731 7.182 10.483 14.793 18.676 23.074 20.733 25.073 3.639 1.667 5.671 2.497 5.671 2.497s2.032-.83 5.671-2.497c3.895-3.784 29.78-30.083 51.567-80.464z" fill="#c6c1c8"/></g></svg>