<svg id="Capa_1" enable-background="new 0 0 512 512" height="512" viewBox="0 0 512 512" width="512" xmlns="http://www.w3.org/2000/svg" xmlns:xlink="http://www.w3.org/1999/xlink"><linearGradient id="SVGID_1_" gradientUnits="userSpaceOnUse" x1="256" x2="256" y1="512" y2="0"><stop offset="0" stop-color="#fd3a84"/><stop offset="1" stop-color="#ffa68d"/></linearGradient><linearGradient id="SVGID_2_" gradientUnits="userSpaceOnUse" x1="256" x2="256" y1="512" y2="30"><stop offset="0" stop-color="#ffc2cc"/><stop offset="1" stop-color="#fff2f4"/></linearGradient><g><g><g><path d="m371.499 293.699c6.603 3.9 15.3 2.1 19.801-4.2 19.497-28.2 29.7-60.599 29.7-94.499 0-11.347-1.193-22.992-3.865-34.639 21.379-16.989 33.865-42.576 33.865-70.361 0-49.626-40.374-90-90-90-27.786 0-53.373 12.487-70.363 33.867-22.991-5.054-45.986-5.054-69.274 0-16.99-21.38-42.577-33.867-70.363-33.867-49.626 0-90 40.374-90 90 0 27.785 12.486 53.372 33.865 70.361-2.672 11.647-3.865 23.292-3.865 34.639 0 33.9 10.203 66.299 29.7 94.499 4.501 6.301 13.198 8.101 19.801 4.2 9.899-5.7 20.999-8.699 33.3-8.699 50.098 0 67.2 57.9 67.8 60.599 1.802 6.301 7.8 10.802 14.399 10.802s12.598-4.501 14.399-10.802c.601-2.699 17.703-60.599 67.801-60.599 12.301 0 23.401 2.999 33.299 8.699zm60.312 60.822c-3.926-4.878-10.459-6.826-16.377-4.878-5.947 1.948-10.078 7.383-10.342 13.638-1.172 28.257-16.582 53.979-53.174 88.711-10.635 10.02-22.09 21.625-35.068 32.523-4.834 4.058-6.621 11.693-4.453 17.626 2.168 5.918 7.793 9.858 14.092 9.858h139.511c8.291 0 15-6.709 15-15 0-50.917-17.461-102.81-49.189-142.478zm-236.543 130.083c-57.041-48.735-86.367-81.698-88.389-121.161-.322-6.226-4.453-11.602-10.371-13.521-6.035-1.934-12.451.059-16.318 4.907-32.169 40.225-49.19 90.696-49.19 142.171 0 8.291 6.709 15 15 15h139.512c6.27 0 11.895-3.911 14.063-9.8 2.196-5.903.468-13.524-4.307-17.596z" fill="url(#SVGID_1_)"/></g></g><g><g><path d="m181 135c0 8.284 6.716 15 15 15s15-6.716 15-15-6.716-15-15-15-15 6.716-15 15zm135 15c8.284 0 15-6.716 15-15s-6.716-15-15-15-15 6.716-15 15 6.716 15 15 15zm-60 90c24.814 0 45-20.186 45-45s-20.186-45-45-45-45 20.186-45 45 20.186 45 45 45zm130.605 27.876c-14.472-8.54-30.761-12.876-48.398-12.876-42.715 0-68.203 27.056-82.207 50.186-14.004-23.13-39.492-50.186-82.207-50.186-17.637 0-33.926 4.336-48.486 12.935-30.059 18.018-48.721 52.954-48.721 91.157 0 2.314 0 5.186.352 5.874 2.813 55.107 46.436 98.65 98.818 143.431 2.725 2.329 6.182 3.604 9.756 3.604h140.977c3.545 0 6.943-1.245 9.639-3.516 13.447-11.309 25.371-24.295 36.387-34.695 29.883-28.345 60.674-63.501 62.227-106.729.674-3.062.674-6.021.674-7.969-.002-38.203-18.664-73.14-48.811-91.216zm20.398-139.326c8.946-10.632 13.997-24.144 13.997-38.55 0-33.084-26.916-60-60-60-14.404 0-27.915 5.05-38.546 13.994 37.634 16.628 67.924 46.921 84.549 84.556zm-217.463-84.561c-10.63-8.941-24.138-13.989-38.54-13.989-33.084 0-60 26.916-60 60 0 14.4 5.047 27.907 13.986 38.537 16.628-37.633 46.92-67.923 84.554-84.548z" fill="url(#SVGID_2_)"/></g></g></g></svg>