<svg height="512pt" viewBox="0 0 512 512" width="512pt" xmlns="http://www.w3.org/2000/svg"><path d="m416 512h-320c-53.023438 0-96-42.976562-96-96v-320c0-53.023438 42.976562-96 96-96h320c53.023438 0 96 42.976562 96 96v320c0 53.023438-42.976562 96-96 96zm0 0" fill="#ffe6e2"/><path d="m256 128c-70.574219 0-128 57.425781-128 128s57.425781 128 128 128 128-57.425781 128-128-57.425781-128-128-128zm47.136719 160.0625c4.160156 4.160156 4.160156 10.914062 0 15.089844-2.082031 2.078125-4.816407 3.121094-7.535157 3.121094-2.722656 0-5.457031-1.042969-7.539062-3.121094l-32.0625-32.0625-32.0625 32.0625c-2.082031 2.078125-4.816406 3.121094-7.539062 3.121094-2.734376 0-5.453126-1.042969-7.535157-3.121094-4.160156-4.160156-4.160156-10.914063 0-15.089844l32.046875-32.0625-32.0625-32.0625c-4.160156-4.160156-4.160156-10.914062 0-15.089844 4.160156-4.175781 10.914063-4.160156 15.089844 0l32.0625 32.0625 32.0625-32.0625c4.160156-4.160156 10.914062-4.160156 15.089844 0 4.175781 4.160156 4.160156 10.914063 0 15.089844l-32.0625 32.0625zm0 0" fill="#fc573b"/></svg>