<svg height="64" width="64" xmlns="http://www.w3.org/2000/svg" xmlns:xlink="http://www.w3.org/1999/xlink" version="1.1" x="0px" y="0px" viewBox="0 0 90 90" style="width: 64px; height: 64px;"><path d="M24.958,9.217c-0.38,0.381-0.568,0.84-0.568,1.379v8.431c0,0.538,0.188,0.997,0.568,1.379 c0.38,0.378,0.84,0.567,1.378,0.567c0.537,0,0.997-0.189,1.377-0.567c0.38-0.382,0.568-0.841,0.568-1.379v-8.431 c0-0.539-0.188-0.998-0.568-1.379c-0.38-0.379-0.84-0.568-1.377-0.567C25.798,8.648,25.338,8.838,24.958,9.217z"></path><path d="M15.424,39.78c-0.535-0.032-1.006,0.13-1.411,0.486l-5.837,5.188c-0.4,0.36-0.616,0.81-0.648,1.346s0.13,1.007,0.486,1.411 c0.36,0.401,0.81,0.617,1.346,0.648c0.535,0.031,1.006-0.131,1.411-0.486l5.837-5.188c0.4-0.361,0.616-0.81,0.648-1.346 c0.032-0.537-0.129-1.008-0.486-1.411C16.41,40.026,15.96,39.812,15.424,39.78z"></path><path d="M14.095,32.728c0.378-0.381,0.567-0.841,0.567-1.379s-0.189-0.996-0.567-1.378c-0.382-0.379-0.841-0.568-1.379-0.567H5.582 c-0.539-0.001-0.997,0.188-1.379,0.567c-0.378,0.382-0.568,0.84-0.567,1.378c-0.001,0.538,0.189,0.998,0.567,1.379 c0.382,0.379,0.84,0.567,1.379,0.567h7.134C13.254,33.295,13.713,33.106,14.095,32.728z"></path><path d="M12.392,12.752c-0.297-0.445-0.709-0.72-1.232-0.827c-0.525-0.105-1.012-0.008-1.459,0.292 c-0.452,0.297-0.732,0.709-0.843,1.231c-0.105,0.53-0.008,1.021,0.292,1.476l5.188,7.784c0.298,0.443,0.708,0.72,1.231,0.826 c0.525,0.104,1.012,0.008,1.46-0.292c0.451-0.298,0.731-0.709,0.842-1.232c0.105-0.529,0.008-1.021-0.291-1.476L12.392,12.752z"></path><path d="M84.056,54.113c-1.674-1.808-3.035-2.985-4.085-3.535c-0.354-0.194-0.69-0.339-1.006-0.438 c-0.052-0.575-0.122-1.159-0.21-1.751c-0.14-1.016-0.459-2.292-0.957-3.827c-1.16-3.597-2.527-6.623-4.102-9.079l-0.017-0.017 c-0.896-1.371-1.862-2.576-2.901-3.615c-0.319-0.319-0.638-0.627-0.958-0.925v0.018c-2.846-2.685-5.591-4.489-8.235-5.417 c-4.261-1.492-7.866-0.746-10.814,2.238c-0.234,0.215-0.456,0.485-0.666,0.811c-0.153-0.005-0.304-0.005-0.453,0 c-2.115,0.018-3.817,0.709-5.107,2.076c-0.535,0.495-1.026,1.311-1.476,2.448l0.032-0.05c-0.23,0.444-0.355,0.894-0.373,1.347 c-1.437,0.332-2.593,0.964-3.47,1.897c-0.269,0.268-0.518,0.57-0.746,0.906c-0.791-0.654-1.526-1.34-2.204-2.059 c-0.012-0.015-0.023-0.03-0.033-0.049c-1.084-1.08-2.056-2.23-2.918-3.453c-3.86-5.597-7.557-7.354-11.09-5.27 c-3.617,1.795-4.833,4.816-3.648,9.063c0.956,3.552,3.086,6.859,6.388,9.923v-0.016c3.064,2.891,6.588,5.48,10.571,7.766h0.017 c2.525,1.441,4.629,2.826,6.307,4.151c-4.662-0.897-8.888-0.735-12.68,0.486c-4.475,1.408-6.432,4.338-5.869,8.788 c0.017,0.165,0.038,0.332,0.065,0.502l-0.016-0.016c0.402,2.597,1.628,4.315,3.68,5.156c1.693,0.814,4.065,0.863,7.118,0.146h0.017 c4.53-1.069,8.984-0.437,13.36,1.896H47.56c4.334,2.325,8.658,3.244,12.972,2.757c1.695,2.31,4.02,3.726,6.972,4.248 c0.022,0.006,0.044,0.011,0.064,0.016c3.789,0.781,8.403-2.536,13.847-9.954v-0.017c5.546-7.648,6.433-13.361,2.658-17.138 L84.056,54.113z M78.268,68.997V68.98c-4.204,5.733-7.587,8.533-10.149,8.4l0.064,0.016c-1.465-0.26-2.691-0.859-3.679-1.8 c2.931-1.578,5.261-3.709,6.987-6.388c0.289-0.453,0.375-0.939,0.259-1.46c-0.111-0.526-0.393-0.937-0.843-1.232 c-0.45-0.289-0.938-0.376-1.459-0.26c-0.526,0.113-0.937,0.395-1.232,0.844c-1.706,2.618-4.134,4.58-7.279,5.885 c-3.833,0.605-7.677-0.13-11.528-2.204h-0.017c-5.261-2.809-10.618-3.561-16.068-2.254c-2.008,0.472-3.568,0.498-4.686,0.081 c-0.735-0.379-1.189-1.07-1.361-2.075c-0.006-0.032-0.012-0.064-0.017-0.098l-0.017-0.016c-0.395-2.531,0.654-4.191,3.146-4.978 c3.261-1.015,6.898-1.124,10.913-0.325c2.777,0.538,4.551,0.57,5.317,0.098c1.368-0.606,1.823-1.612,1.362-3.017 c-0.116-0.53-0.576-1.185-1.379-1.961l-0.016-0.017c-2.055-2.042-5.082-4.203-9.08-6.486h0.017 c-3.714-2.123-6.999-4.528-9.858-7.215v-0.016c-2.707-2.513-4.47-5.215-5.286-8.106c-0.588-2.109-0.031-3.628,1.67-4.557 c1.771-0.659,3.804,0.675,6.097,4.005l0.017,0.017c0.992,1.41,2.11,2.739,3.356,3.988l-0.033-0.048 c1.523,1.62,3.302,3.101,5.335,4.441c0.029,0.021,0.063,0.036,0.098,0.05c1.603,1.088,3.618,2.353,6.048,3.793 c0.465,0.274,0.957,0.345,1.475,0.211c0.517-0.133,0.911-0.43,1.184-0.891c0.274-0.465,0.346-0.956,0.211-1.478 c-0.134-0.516-0.432-0.91-0.892-1.183c-2.063-1.221-3.817-2.309-5.27-3.259c0.103-0.167,0.216-0.313,0.341-0.438 c0.758-0.673,1.855-1.014,3.291-1.021c1.035,0.135,2.483,0.733,4.346,1.8c0.862,0.487,1.813,1.076,2.854,1.767 c0.448,0.3,0.935,0.396,1.459,0.292c0.524-0.11,0.935-0.391,1.232-0.843c0.3-0.448,0.396-0.935,0.291-1.46 c-0.11-0.522-0.392-0.934-0.842-1.231c-1.896-1.261-3.56-2.238-4.994-2.936c-1.09-0.53-2.047-0.896-2.869-1.102 c0.172-0.399,0.345-0.703,0.519-0.908c0.618-0.553,1.402-0.855,2.351-0.909c0.477-0.031,0.996,0,1.556,0.098h0.017 c0.015,0.009,0.03,0.014,0.049,0.018h0.017c0.017,0.007,0.033,0.012,0.049,0.016c1.479,0.361,3.743,1.67,6.794,3.923 c0.434,0.319,0.914,0.438,1.442,0.358c0.526-0.085,0.947-0.343,1.265-0.779c0.324-0.433,0.448-0.913,0.372-1.442 c-0.084-0.531-0.343-0.959-0.777-1.281c-2.333-1.716-4.295-2.954-5.886-3.713c1.635-1.102,3.549-1.269,5.74-0.503 c2.197,0.802,4.489,2.326,6.874,4.572v0.016c0.286,0.267,0.573,0.542,0.858,0.828c0.864,0.862,1.67,1.862,2.417,2.999l-0.017-0.017 c1.408,2.214,2.636,4.938,3.681,8.172c0.409,1.275,0.674,2.335,0.794,3.178v0.017c0.181,1.184,0.283,2.33,0.309,3.438 c0,0.021,0,0.042,0,0.064c0,1.89-0.21,3.672-0.632,5.351c-0.006,0.021-0.011,0.044-0.017,0.065 c-0.109,0.372-0.206,0.734-0.292,1.086c-0.134,0.515-0.063,1.001,0.21,1.459c0.279,0.462,0.679,0.761,1.201,0.893 c0.515,0.134,1.001,0.063,1.458-0.211c0.462-0.278,0.76-0.678,0.893-1.201c0.082-0.318,0.173-0.648,0.275-0.988 c0.005-0.023,0.01-0.045,0.016-0.065c0.345-1.342,0.577-2.742,0.698-4.198c0.615,0.504,1.34,1.208,2.172,2.107l0.017,0.017 C83.255,59.385,82.277,63.461,78.268,68.997z"></path><path d="M36.712,25.025l5.837-5.188c0.4-0.361,0.618-0.811,0.649-1.347c0.032-0.537-0.13-1.007-0.487-1.411 c-0.36-0.401-0.808-0.617-1.346-0.647c-0.534-0.032-1.005,0.13-1.409,0.486l-5.838,5.188c-0.4,0.36-0.617,0.809-0.648,1.346 c-0.032,0.536,0.13,1.007,0.486,1.41c0.36,0.402,0.809,0.618,1.346,0.649C35.838,25.544,36.308,25.382,36.712,25.025z"></path></svg>