<?xml version="1.0" standalone="no"?>
<!DOCTYPE svg PUBLIC "-//W3C//DTD SVG 20010904//EN"
 "http://www.w3.org/TR/2001/REC-SVG-20010904/DTD/svg10.dtd">
<svg version="1.0" xmlns="http://www.w3.org/2000/svg"
 width="1280.000000pt" height="1218.000000pt" viewBox="0 0 1280.000000 1218.000000"
 preserveAspectRatio="xMidYMid meet">
<metadata>
Created by potrace 1.15, written by Peter Selinger 2001-2017
</metadata>
<g transform="translate(0.000000,1218.000000) scale(0.100000,-0.100000)"
fill="#009688" stroke="none">
<path d="M12067 12170 c-134 -24 -279 -85 -373 -156 -96 -73 -1311 -1209
-4004 -3744 -2070 -1948 -2578 -2425 -3325 -3119 -280 -261 -566 -530 -634
-598 -69 -68 -135 -126 -148 -129 -17 -5 -68 14 -176 64 -84 39 -299 134 -479
211 -181 78 -473 204 -650 280 -2117 912 -1964 850 -2071 830 -82 -15 -142
-58 -177 -127 -54 -104 -29 -218 85 -392 52 -78 288 -491 685 -1195 938 -1665
1286 -2269 1718 -2980 250 -412 478 -784 508 -826 66 -94 184 -208 247 -237
62 -29 151 -52 202 -52 99 0 221 51 307 129 64 57 108 120 271 386 183 300
339 543 536 840 1598 2396 3567 4881 7583 9567 295 345 548 645 562 667 14 22
35 68 47 103 67 198 -77 388 -348 459 -88 23 -288 34 -366 19z"/>
</g>
</svg>
