<svg height="512pt" viewBox="-80 0 512 512.15457" width="512pt" xmlns="http://www.w3.org/2000/svg"><path d="m272.070312 384.15625h-192v-16c-.304687-25.832031-10.839843-50.484375-29.292968-68.5625-68.171875-69.109375-67.511719-180.363281 1.46875-248.664062 68.984375-68.296876 180.238281-67.847657 248.667968 1.003906 68.425782 68.855468 68.1875 180.113281-.539062 248.667968-18.101562 17.816407-28.296875 42.152344-28.304688 67.554688zm0 0" fill="#ffcb5a"/><path d="m96.070312 416.15625h160c8.839844 0 16 7.160156 16 16 0 8.835938-7.160156 16-16 16h-160c-8.835937 0-16-7.164062-16-16 0-8.839844 7.164063-16 16-16zm0 0" fill="#62808c"/><path d="m128.070312 480.15625h96c8.839844 0 16 7.160156 16 16 0 8.835938-7.160156 16-16 16h-96c-8.835937 0-16-7.164062-16-16 0-8.839844 7.164063-16 16-16zm0 0" fill="#62808c"/><g fill="#fff"><path d="m64.070312 160.15625h32v32h-32zm0 0"/><path d="m128.070312 192.15625h32v192h32v-192h32v-32h-96zm0 0"/><path d="m256.070312 160.15625h32v32h-32zm0 0"/></g></svg>