<svg id="Layer_1" enable-background="new 0 0 512 512" height="512" viewBox="0 0 512 512" width="512" xmlns="http://www.w3.org/2000/svg"><path d="m446.5 287.553c0 141.385-85.29 224.447-190.5 224.447s-190.5-83.062-190.5-224.447 85.29-287.553 190.5-287.553 190.5 146.168 190.5 287.553z" fill="#e4e9f5"/><path d="m256 0c-5.201 0-10.35.371-15.446 1.067 97.986 13.386 175.054 152.09 175.054 286.486s-77.068 216.084-175.054 223.833c5.096.403 10.245.614 15.446.614 105.21 0 190.5-83.062 190.5-224.447s-85.29-287.553-190.5-287.553z" fill="#d7dce8"/><g fill="#8ab4ba"><path d="m215.248 220.507c-7.15 36.798-33.155 62.762-58.084 57.992s-39.341-38.466-32.19-75.264 33.155-62.762 58.084-57.992c24.928 4.769 39.341 38.466 32.19 75.264z"/><path d="m97.428 419.635c-17.167-29.91-28.238-66.56-31.155-109.173 18.517-1.015 38.938 16.408 48.245 42.613 10.505 29.629 2.852 59.323-17.09 66.56z"/><path d="m332.115 86.995c10.564 22.875 5.749 47.495-10.755 54.99-16.503 7.495-38.445-4.974-49.009-27.849s-5.749-47.495 10.755-54.99 38.445 4.974 49.009 27.849z"/><path d="m393.666 375.088c-7.334 37.742-36.821 63.834-65.861 58.278s-46.637-40.656-39.304-78.398c7.334-37.742 36.821-63.834 65.861-58.278 29.041 5.555 46.638 40.655 39.304 78.398z"/></g></svg>