<?xml version="1.0" encoding="iso-8859-1"?>
<!-- Generator: Adobe Illustrator 19.0.0, SVG Export Plug-In . SVG Version: 6.00 Build 0)  -->
<svg version="1.1" id="Capa_1" xmlns="http://www.w3.org/2000/svg" xmlns:xlink="http://www.w3.org/1999/xlink" x="0px" y="0px"
	 viewBox="0 0 187.058 187.058" style="enable-background:new 0 0 187.058 187.058;" xml:space="preserve">
<g>
	<g>
		<path style="fill:#BDBDBD;" d="M77.74,44.427c-2.3,3.731-5.17,7.17-8.34,10.3c-5.06,5-10.9,9.23-16.46,12.65
			c-5.53,3.41-10.8,6.021-14.77,7.811c-0.03,0.01-0.05,0.01-0.07,0.029c-4.22,1.91-6.96,2.87-6.96,2.87s-2.72-4.12-5.2-10.479
			c-0.97-2.521-1.91-5.4-2.63-8.511c-2.7-11.76-2.2-26.909,11.52-39.13c5.63-5.02,25.7,10.141,36.28,18.82
			C75.1,42.077,77.74,44.427,77.74,44.427z"/>
	</g>
	<g>
		<path style="fill:#ED7994;" d="M73.912,48.755c0,0-28.313-25.27-34.561-19.707c-21.344,19.009-2.976,46.816-2.976,46.816
			S62.963,66.481,73.912,48.755z"/>
	</g>
	<g>
		<path style="fill:#BDBDBD;" d="M110.269,44.431c0,0,35.15-31.373,42.905-24.467c26.5,23.6,3.694,58.123,3.694,58.123
			S123.861,66.437,110.269,44.431z"/>
	</g>
	<g>
		<path style="fill:#ED7994;" d="M114.097,48.755c0,0,28.313-25.27,34.561-19.707c21.344,19.009,2.976,46.816,2.976,46.816
			S125.045,66.481,114.097,48.755z"/>
	</g>
	<g>
		<path style="fill:#E1E1E1;" d="M71.96,159.957v0.01c0,0-4.94-2.31-12.91-5.38c-9.66-3.72-23.77-8.54-38.97-11.72
			c0,0,5.65-3.38,10.42-3.641c0,0-19.5-15.5-30.5-16.159c0,0,8.17-4,15.33-4c0,0-23.25-30.46-2.88-62.25c0,0,4.27,2.43,10.86,2.279
			c1.92-0.04,4.03-0.29,6.3-0.89c3.39-0.9,7.1-2.56,10.99-5.4c0.09-0.06,0.17-0.119,0.26-0.18c4.1-2.6,8.23,3.87,12.08,14.75
			c0.05,0.13,0.09,0.26,0.14,0.39c2.01,5.75,3.95,12.7,5.77,20.16c0.01,0.03,0.01,0.07,0.02,0.101c0.01,0.04,0.02,0.09,0.04,0.13
			c0.33,1.359,0.65,2.75,0.97,4.14c1.6,6.91,3.09,14.15,4.45,21.21c0,0.03,0.01,0.061,0.01,0.09c0.13,0.65,0.25,1.311,0.38,1.96
			c1.08,5.78,2.08,11.41,2.95,16.61C70.3,147.767,71.9,159.528,71.96,159.957z"/>
		<path style="fill:#E1E1E1;" d="M94.57,35.997v0.03l-0.47,90.67l-0.04,7.79v1.5l-0.021,2.93l-0.05,10.61l-0.02,2.12l-0.011,2.829
			l-0.069,13.601c-0.12,0-0.24,0.01-0.36,0c-0.27,0.01-0.54,0.01-0.81,0.01c-5.391,0-9.801-1.16-13.69-3.2
			c-2.11-1.1-4.07-2.46-5.95-4.04c-0.34-0.29-0.72-0.58-1.12-0.88v-0.01c-3.23-2.41-8.28-5.21-13.54-7.94
			c-8.49-4.42-17.5-8.67-20.25-10.829c0,0,0,0,0-0.011h-0.01c-0.04-0.029-0.2-0.16-0.48-0.359c-2.23-1.761-4.62-3.49-7.2-5.181
			c-12.41-8.149-14.25-25.479-14.25-38.56c0-6.33,1.24-12.43,3.53-18.17v-0.01c0.84-2.091,1.81-4.141,2.94-6.131
			c0.76-1.399,1.61-2.779,2.52-4.119c0.24-0.351,0.47-0.7,0.72-1.04c0.89-1.271,1.84-2.511,2.85-3.71
			c0.53-0.641,1.07-1.271,1.65-1.891c2.98-3.319,6.39-6.399,10.16-9.2c0.09-0.06,0.17-0.119,0.26-0.18
			c3.86-2.84,8.09-5.37,12.62-7.55c0.29-0.14,0.58-0.28,0.87-0.4c1.25-0.6,2.52-1.16,3.81-1.689h0.01
			c0.79-0.33,1.57-0.641,2.39-0.94c0.49-0.18,0.98-0.37,1.47-0.55c0.73-0.26,1.46-0.51,2.2-0.75c0.21-0.07,0.42-0.13,0.63-0.2
			c0.64-0.21,1.29-0.41,1.95-0.6c1.41-0.42,2.85-0.81,4.3-1.16c6.78-1.66,13.94-2.62,21.38-2.76c0.351-0.021,0.69-0.021,1.04-0.021
			c0.14-0.01,0.29-0.01,0.43,0c0.19-0.01,0.381-0.01,0.57-0.01H94.57z"/>
		<g>
			<path style="fill:#BDBDBD;" d="M64.909,115.524c23.298-6.815,14.116,21.463,17.384,18.687c4.5-3.822-5.576-32.174-6.154-35.207
				c-1.459-7.649-8.871-12.688-16.521-11.229c-4.26,0.813-9.332,1.947-11.301,5.464c-1.567,2.8-0.574,7.667,0.072,11.058
				C49.846,111.946,57.258,116.983,64.909,115.524z"/>
			<path style="fill:#D1F2FF;" d="M64.537,113.564h-0.011c-6.579,1.25-12.92-3.061-14.17-9.641c-1.12-5.87,2.63-9.63,8.12-11.28
				c0.67-0.189,1.37-0.359,2.08-0.5c0.779-0.149,1.55-0.25,2.311-0.31c5.58-0.42,10.199,1.75,11.31,7.54
				C75.426,105.953,71.117,112.303,64.537,113.564z"/>
			<path style="fill:#BDBDBD;" d="M83.851,135.718c0,0,3.427,0.619,2.502-2.895c-0.924-3.515-3.849-38.205-18.688-44.221
				l0.174,0.912C67.838,89.515,78.903,93.743,83.851,135.718z"/>
			<path style="fill:#050403;" d="M64.537,113.564h-0.011c-0.47,0-7.85-4.08-9.1-10.61c-0.81-4.25,1.35-8.01,3.05-10.311
				c0.67-0.189,1.37-0.359,2.08-0.5c0.779-0.149,1.55-0.25,2.311-0.31c2.31,1.6,5.459,4.46,6.229,8.51
				C70.356,106.923,64.886,113.503,64.537,113.564z"/>
			<circle style="fill:#FFFFFF;" cx="57.991" cy="99.303" r="2.521"/>
			<circle style="fill:#FFFFFF;" cx="67.104" cy="102.719" r="1.958"/>
		</g>
		<path style="fill:#BDBDBD;" d="M61.209,87.566c0,0-19.875,4.201-22.875,1.037c0,0,9.67,22.143,16.71,25.177
			c0,0-8.867-13.073-5.647-18.903C52.617,89.046,61.209,87.566,61.209,87.566z"/>
		<path style="fill:#E1E1E1;" d="M115.099,159.968c0,0,24.125-11.303,51.875-17.104c0,0-5.645-3.382-10.416-3.634
			c0,0,19.5-15.5,30.5-16.167c0,0-8.168-4-15.334-4c0,0,23.25-30.461,2.88-62.246c0,0-12.751,7.238-28.149-4.008
			C131.058,41.564,115.099,159.968,115.099,159.968z"/>
		<path style="fill:#E1E1E1;" d="M170.83,97.077c0,13.08-1.84,30.41-14.25,38.56c-2.58,1.69-4.97,3.42-7.199,5.181
			c-0.28,0.199-0.44,0.33-0.48,0.359h-0.01c0,0.011,0,0.011,0,0.011c-2.75,2.159-11.76,6.409-20.25,10.829
			c-5.26,2.73-10.31,5.53-13.54,7.94v0.01c-0.4,0.3-0.78,0.59-1.12,0.88c-1.88,1.58-3.84,2.941-5.95,4.04
			c-3.89,2.04-8.3,3.2-13.69,3.2h-0.381c-0.14,0-0.29,0-0.43-0.01c-0.12,0.01-0.24,0-0.36,0l-0.079-16.43l-0.02-2.12l-0.05-11.04
			l-0.021-2.5v-1.5l-0.04-7.79l-0.47-90.67v-0.03h0.04c0.33,0,0.67,0,1,0.01c0.14,0,0.28,0,0.43,0.01c0.2-0.01,0.4,0,0.61,0.011
			c7.7,0.14,15.12,1.17,22.11,2.949c1.21,0.29,2.39,0.62,3.569,0.971c0.66,0.19,1.311,0.39,1.95,0.6c0.44,0.141,0.87,0.28,1.3,0.42
			c0.511,0.17,1.021,0.351,1.53,0.53c0.49,0.18,0.98,0.37,1.47,0.55c0.82,0.3,1.601,0.61,2.391,0.94h0.01
			c1.29,0.529,2.56,1.09,3.81,1.689c0.29,0.12,0.58,0.261,0.87,0.4c4.63,2.22,8.95,4.82,12.87,7.729
			c0.021,0.011,0.03,0.021,0.04,0.03c4.061,3.01,7.71,6.36,10.86,9.99c0.319,0.35,0.62,0.71,0.92,1.07c1.23,1.47,2.38,3,3.44,4.569
			c0.051,0.061,0.091,0.12,0.131,0.181c0.909,1.34,1.76,2.72,2.52,4.119c1.13,1.99,2.1,4.04,2.94,6.131v0.01
			C169.59,84.648,170.83,90.747,170.83,97.077z"/>
		<g>
			<path style="fill:#BDBDBD;" d="M122.15,115.524c-23.297-6.815-14.115,21.463-17.385,18.687c-4.5-3.822,5.577-32.174,6.155-35.207
				c1.459-7.649,8.871-12.688,16.522-11.229c4.26,0.813,9.332,1.947,11.301,5.464c1.567,2.8,0.574,7.667-0.072,11.058
				C137.212,111.946,129.8,116.983,122.15,115.524z"/>
			<path style="fill:#D1F2FF;" d="M122.523,113.564h0.01c6.58,1.25,12.92-3.061,14.17-9.641c1.12-5.87-2.63-9.63-8.12-11.28
				c-0.67-0.189-1.37-0.359-2.08-0.5c-0.78-0.149-1.55-0.25-2.309-0.31c-5.58-0.42-10.2,1.75-11.311,7.54
				C111.632,105.953,115.943,112.303,122.523,113.564z"/>
			<path style="fill:#BDBDBD;" d="M103.207,135.718c0,0-3.427,0.619-2.502-2.895c0.924-3.515,3.849-38.205,18.688-44.221
				l-0.174,0.912C119.22,89.515,108.156,93.743,103.207,135.718z"/>
			<path style="fill:#050403;" d="M122.523,113.564h0.01c0.47,0,7.85-4.08,9.1-10.61c0.811-4.25-1.35-8.01-3.05-10.311
				c-0.67-0.189-1.37-0.359-2.08-0.5c-0.78-0.149-1.55-0.25-2.309-0.31c-2.311,1.6-5.461,4.46-6.231,8.51
				C116.703,106.923,122.172,113.503,122.523,113.564z"/>
			<circle style="fill:#FFFFFF;" cx="129.067" cy="99.303" r="2.521"/>
			<circle style="fill:#FFFFFF;" cx="119.954" cy="102.719" r="1.958"/>
		</g>
		<path style="fill:#FFFFFF;" d="M96.051,132.786c0.813-0.472,1.732-0.826,2.738-1.099c0.056-0.019,0.118-0.038,0.18-0.051
			c0.224-0.061,0.446-0.117,0.683-0.168h0.007c0.043-0.005,0.08-0.018,0.131-0.023c1.999-0.429,4.284-0.572,6.706-0.572
			c6.854,0,12.598,4.775,14.075,11.183c0.242,1.05,0.372,2.142,0.372,3.267c0,7.979-5.371,13.132-13.35,13.132
			c-0.527,0-1.055-0.043-1.577-0.131c-5.613-0.906-10.772-6.488-12.92-12.387v-0.007v-10.207v-0.013
			C93.79,134.438,94.797,133.493,96.051,132.786z"/>
		<path style="fill:#ED7994;" d="M93.908,126.699v12.229h0.008c0,0,0.039,0,0.048,0c0.169-0.008,0.385-0.056,0.642-0.185
			c0.857-0.4,2.061-1.604,2.79-4.666c0.064-0.281,0.185-0.514,0.329-0.722c0.674-0.938,2.094-1.211,3.328-1.508
			c0.145-0.04,0.289-0.072,0.426-0.112c0.376-0.097,0.721-0.209,1.01-0.361h0.008c0.031-0.017,0.064-0.032,0.096-0.056
			c1.066-0.602,1.195-1.548,0.746-2.431v-0.008c-0.088-0.192-0.209-0.384-0.361-0.561c-0.24-0.313-0.553-0.593-0.914-0.834
			c-0.328-0.224-0.705-0.416-1.105-0.545c-0.441-0.152-0.914-0.24-1.404-0.24H93.908z"/>
		<path style="fill:#BDBDBD;" d="M126.849,87.566c0,0,19.875,4.201,22.875,1.037c0,0-9.67,22.143-16.71,25.177
			c0,0,8.866-13.073,5.647-18.903C135.443,89.046,126.849,87.566,126.849,87.566z"/>
		<path style="fill:#FFFFFF;" d="M93.963,135.71v10.229c-0.023,0.069-0.055,0.139-0.078,0.209c-0.008,0.015-0.015,0.038-0.023,0.054
			c-0.101,0.278-0.217,0.559-0.332,0.828c-0.108,0.256-0.225,0.504-0.341,0.76c-2.261,4.737-6.356,8.95-10.887,10.251
			c-0.418,0.124-0.836,0.216-1.262,0.286c-0.519,0.086-1.045,0.124-1.58,0.124c-6.256,0-10.91-3.166-12.628-8.386
			c-0.209-0.635-0.372-1.301-0.488-1.99c-0.155-0.875-0.232-1.795-0.232-2.756c0-1.123,0.131-2.214,0.379-3.259
			c0.921-4.018,3.522-7.387,7.015-9.354c2.091-1.169,4.491-1.835,7.054-1.835c1.262,0,2.485,0.039,3.654,0.14
			c0.427,0.039,0.845,0.078,1.254,0.132c0.086,0.008,0.163,0.022,0.241,0.03c0.302,0.047,0.604,0.093,0.898,0.141
			c0.225,0.038,0.44,0.084,0.657,0.131c0.055,0.007,0.094,0.023,0.132,0.023h0.007c0.094,0.023,0.18,0.039,0.264,0.063
			c0.14,0.03,0.279,0.068,0.419,0.107c0.062,0.016,0.123,0.031,0.186,0.047c0.999,0.278,1.921,0.635,2.733,1.1
			c0.82,0.464,1.532,1.029,2.113,1.719c0.155,0.171,0.287,0.341,0.411,0.526c0.107,0.139,0.209,0.294,0.294,0.448
			c0.016,0.016,0.03,0.039,0.038,0.063c0.023,0.039,0.055,0.078,0.078,0.124C93.948,135.679,93.955,135.695,93.963,135.71z"/>
		<path style="fill:#ED7994;" d="M94.152,126.699v12.229h-0.008c0,0-0.04,0-0.049,0c-0.168-0.008-0.385-0.056-0.642-0.185
			c-0.858-0.4-2.062-1.604-2.79-4.666c-0.064-0.281-0.185-0.514-0.329-0.722c-0.673-0.938-2.093-1.211-3.328-1.508
			c-0.143-0.04-0.289-0.072-0.425-0.112c-0.377-0.097-0.722-0.209-1.011-0.361h-0.008c-0.032-0.017-0.063-0.032-0.097-0.056
			c-1.066-0.602-1.194-1.548-0.745-2.431v-0.008c0.088-0.192,0.208-0.384,0.361-0.561c0.24-0.313,0.553-0.593,0.913-0.834
			c0.33-0.224,0.706-0.416,1.107-0.545c0.44-0.152,0.914-0.24,1.403-0.24H94.152z"/>
	</g>
	<path style="opacity:0.6;fill:#FFFFFF;" d="M93.959,36.007v132.08c-0.14,0-0.29,0-0.43-0.01c-0.27,0.01-0.54,0.01-0.81,0.01
		c-5.391,0-9.801-1.16-13.69-3.2c-0.54,0.16-1.08,0.28-1.63,0.37c-0.67,0.11-1.35,0.16-2.04,0.16c-8.08,0-14.09-4.09-16.31-10.83
		c-9.66-3.72-23.77-8.54-38.97-11.72c0,0,5.65-3.38,10.42-3.641c0,0-19.5-15.5-30.5-16.159c0,0,8.17-4,15.33-4
		c0,0-23.25-30.46-2.88-62.25c0,0,4.27,2.43,10.86,2.279c-2.7-11.76-2.2-26.909,11.52-39.13c5.63-5.02,25.7,10.141,36.28,18.82
		c6.78-1.66,13.94-2.62,21.38-2.76v-0.03h0.04c0.33,0,0.67,0,1,0.01C93.669,35.997,93.82,35.997,93.959,36.007z"/>
</g>
<g>
</g>
<g>
</g>
<g>
</g>
<g>
</g>
<g>
</g>
<g>
</g>
<g>
</g>
<g>
</g>
<g>
</g>
<g>
</g>
<g>
</g>
<g>
</g>
<g>
</g>
<g>
</g>
<g>
</g>
</svg>
