<svg id="Capa_1" enable-background="new 0 0 501.129 501.129" height="512" viewBox="0 0 501.129 501.129" width="512" xmlns="http://www.w3.org/2000/svg"><path d="m119.842 287.959h-111.686c-4.504 0-8.156-3.358-8.156-7.5s3.652-7.5 8.156-7.5h111.686c4.505 0 8.156 3.358 8.156 7.5s-3.651 7.5-8.156 7.5z" fill="#c5d3dd"/><path d="m124.192 335.056h-84.878c-4.504 0-8.156-3.358-8.156-7.5s3.652-7.5 8.156-7.5h84.879c4.504 0 8.156 3.358 8.156 7.5-.001 4.142-3.652 7.5-8.157 7.5z" fill="#c5d3dd"/><path d="m141.175 374.411h-51.507c-4.504 0-8.156-3.358-8.156-7.5s3.652-7.5 8.156-7.5h51.507c4.504 0 8.156 3.358 8.156 7.5s-3.651 7.5-8.156 7.5z" fill="#c5d3dd"/><path d="m131.805 240.862h-84.879c-4.504 0-8.156-3.358-8.156-7.5s3.652-7.5 8.156-7.5h84.879c4.505 0 8.156 3.358 8.156 7.5 0 4.143-3.652 7.5-8.156 7.5z" fill="#c5d3dd"/><path d="m148.788 201.507h-51.507c-4.505 0-8.156-3.358-8.156-7.5s3.652-7.5 8.156-7.5h51.507c4.504 0 8.156 3.358 8.156 7.5s-3.652 7.5-8.156 7.5z" fill="#c5d3dd"/><path d="m220.684 148.001-38.135-44.356c-2.7-3.14-7.435-3.499-10.577-.797l-23.735 20.406c-1.508 1.297-2.439 3.14-2.589 5.123s.495 3.945 1.792 5.454l38.135 44.356c1.483 1.725 3.581 2.61 5.69 2.61 1.731 0 3.471-.596 4.886-1.813l23.735-20.406c1.508-1.297 2.439-3.14 2.589-5.123.151-1.984-.494-3.946-1.791-5.454z" fill="#fedf30"/><path d="m198.374 90.041-16.103-18.73c-2.701-3.14-7.435-3.498-10.577-.797l-55.382 47.614c-1.508 1.297-2.439 3.14-2.589 5.123-.149 1.983.495 3.945 1.792 5.454l16.103 18.73c1.483 1.725 3.58 2.61 5.69 2.61 1.731 0 3.471-.596 4.886-1.813l55.382-47.614c1.508-1.297 2.439-3.14 2.589-5.123.15-1.984-.495-3.946-1.791-5.454z" fill="#d7aa02"/><path d="m468.812 128.377c-.149-1.983-1.081-3.826-2.589-5.123l-23.735-20.406c-3.141-2.701-7.876-2.344-10.577.797l-38.135 44.356c-1.296 1.508-1.941 3.47-1.791 5.454.15 1.983 1.081 3.826 2.589 5.123l23.735 20.406c1.416 1.217 3.155 1.813 4.887 1.813 2.109 0 4.207-.885 5.69-2.61l38.135-44.356c1.296-1.509 1.94-3.47 1.791-5.454z" fill="#fedf30"/><path d="m498.15 118.128-55.383-47.614c-1.509-1.297-3.47-1.949-5.454-1.792-1.983.149-3.826 1.081-5.123 2.589l-16.103 18.73c-2.7 3.141-2.343 7.876.798 10.576l55.383 47.614c1.365 1.174 3.102 1.813 4.89 1.813.188 0 .376-.007.564-.021 1.983-.15 3.826-1.081 5.123-2.59l16.102-18.73c2.701-3.139 2.343-7.875-.797-10.575z" fill="#d7aa02"/><path d="m285.271 59.018h46.024v65.73h-46.024z" fill="#0055a3"/><path d="m336.502 16.958h-84.562c-7.933 0-14.364 6.431-14.364 14.364v17.45c0 7.933 6.431 14.364 14.364 14.364h84.109l20.423-5.505v-34.819z" fill="#0473ce"/><path d="m364.624 16.958h-30c7.933 0 14.364 6.431 14.364 14.364v17.45c0 7.933-6.431 14.364-14.364 14.364h30c7.933 0 14.364-6.431 14.364-14.364v-17.45c0-7.933-6.431-14.364-14.364-14.364z" fill="#0055a3"/><path d="m258.813 477.718c-102.942-27.321-164.245-132.921-136.924-235.863 22.029-83.003 94.95-138.935 176.335-143.167 19.55-1.016 190.659 30.368 190.659 186.741 0 114.582-104.523 205.402-195.602 198.191-11.448-.906-22.975-2.851-34.468-5.902z" fill="#26a6fe"/><path d="m308.282 98.478c-5.048 0-10.05.196-15 .577 99.496 7.655 177.846 90.811 177.846 192.27s-78.351 184.615-177.846 192.27c4.95.381 9.952.577 15 .577 106.506 0 192.846-86.34 192.846-192.847s-86.339-192.847-192.846-192.847z" fill="#0593fc"/><circle cx="308.282" cy="291.325" fill="#fff3ef" r="150.18"/><path d="m327.688 142.404c-11.723-1.528-23.305-1.655-34.581-.519 1.525.152 3.051.32 4.581.519 82.247 10.717 140.233 86.08 129.515 168.327-9.19 70.524-65.911 123.205-133.746 130.035 80.446 8.025 153.228-49.318 163.746-130.035 10.718-82.247-47.268-157.61-129.515-168.327z" fill="#f1f0f0"/><g fill="#b6c4cf"><path d="m308.315 184.066c-3.855 0-6.98-3.125-6.98-6.98v-19.284c0-3.855 3.125-6.98 6.98-6.98s6.98 3.125 6.98 6.98v19.284c0 3.855-3.125 6.98-6.98 6.98z"/><path d="m389.681 217.408c-1.787 0-3.573-.681-4.936-2.044-2.726-2.726-2.726-7.145.001-9.871l13.636-13.636c2.725-2.727 7.144-2.726 9.871 0 2.726 2.726 2.726 7.145-.001 9.871l-13.636 13.636c-1.363 1.362-3.15 2.044-4.935 2.044z"/><path d="m442.922 298.519h-19.284c-3.855 0-6.98-3.125-6.98-6.98s3.125-6.98 6.98-6.98h19.284c3.855 0 6.98 3.125 6.98 6.98s-3.125 6.98-6.98 6.98z"/><path d="m403.932 393.52c-1.786 0-3.573-.682-4.936-2.044l-13.636-13.636c-2.726-2.726-2.726-7.145 0-9.871 2.727-2.726 7.145-2.726 9.872 0l13.636 13.636c2.726 2.726 2.726 7.145 0 9.871-1.363 1.363-3.15 2.044-4.936 2.044z"/><path d="m309.185 433.127c-3.855 0-6.98-3.125-6.98-6.98v-19.285c0-3.855 3.125-6.98 6.98-6.98s6.98 3.125 6.98 6.98v19.285c0 3.854-3.125 6.98-6.98 6.98z"/><path d="m214.183 394.136c-1.786 0-3.573-.681-4.935-2.045-2.726-2.726-2.726-7.145 0-9.871l13.636-13.636c2.726-2.726 7.145-2.726 9.871 0s2.726 7.145 0 9.871l-13.636 13.636c-1.363 1.363-3.15 2.045-4.936 2.045z"/><path d="m193.862 299.389h-19.284c-3.855 0-6.98-3.125-6.98-6.98s3.125-6.98 6.98-6.98h19.284c3.855 0 6.98 3.125 6.98 6.98s-3.125 6.98-6.98 6.98z"/><path d="m227.204 218.023c-1.786 0-3.573-.681-4.935-2.044l-13.636-13.636c-2.726-2.726-2.726-7.145 0-9.871s7.145-2.727 9.871 0l13.636 13.636c2.726 2.726 2.726 7.145 0 9.871-1.363 1.363-3.15 2.044-4.936 2.044z"/></g><path d="m308.283 287.959c-4.143 0-7.5-3.358-7.5-7.5v-50.432c0-4.142 3.357-7.5 7.5-7.5s7.5 3.358 7.5 7.5v50.432c0 4.142-3.358 7.5-7.5 7.5z" fill="#678d98"/><path d="m371.385 360.18c-1.92 0-3.839-.732-5.304-2.197l-54.601-54.601c-2.929-2.929-2.929-7.678 0-10.606 2.931-2.929 7.679-2.929 10.608 0l54.6 54.601c2.929 2.929 2.929 7.678 0 10.606-1.464 1.464-3.384 2.197-5.303 2.197z" fill="#678d98"/><path d="m309.285 305.65c-8.31 0-15.072-6.761-15.072-15.071s6.761-15.071 15.072-15.071c8.31 0 15.071 6.761 15.071 15.071s-6.761 15.071-15.071 15.071z" fill="#3e5959"/></svg>