<?xml version="1.0" standalone="no"?>
<!DOCTYPE svg PUBLIC "-//W3C//DTD SVG 20010904//EN"
 "http://www.w3.org/TR/2001/REC-SVG-20010904/DTD/svg10.dtd">
<svg version="1.0" xmlns="http://www.w3.org/2000/svg"
 width="1280.000000pt" height="1230.000000pt" viewBox="0 0 1280.000000 1230.000000"
 preserveAspectRatio="xMidYMid meet">
<metadata>
Created by potrace 1.15, written by Peter Selinger 2001-2017
</metadata>
<g transform="translate(0.000000,1230.000000) scale(0.100000,-0.100000)"
fill="#009688" stroke="none">
<path d="M12360 12127 c-399 -300 -1179 -877 -1193 -883 -8 -3 -80 13 -158 35
-562 160 -1120 181 -1649 65 -163 -36 -394 -115 -528 -179 l-115 -55 -64 57
c-361 324 -660 535 -984 697 -291 145 -547 220 -665 196 -66 -14 -114 -56
-132 -117 -18 -61 -14 -216 9 -349 19 -113 39 -199 158 -699 88 -370 144 -681
172 -965 16 -151 17 -523 2 -750 -12 -187 -3 -414 22 -548 54 -292 180 -526
366 -677 115 -94 160 -140 153 -159 -3 -9 -34 -38 -68 -65 -211 -168 -545
-577 -868 -1064 -614 -923 -1149 -2020 -1580 -3242 -85 -240 -96 -263 -161
-332 -234 -248 -791 -383 -1817 -443 -187 -11 -747 -24 -1740 -40 -872 -15
-1117 -34 -1349 -107 -66 -21 -94 -35 -129 -69 -42 -41 -44 -46 -39 -85 14
-103 172 -184 492 -253 518 -111 1287 -182 2920 -271 253 -14 575 -32 715 -40
1033 -61 1450 -113 1496 -186 4 -6 -28 -46 -74 -93 -140 -142 -198 -246 -209
-377 -10 -117 34 -226 136 -332 115 -121 195 -160 360 -176 99 -9 280 -1 406
19 277 43 738 161 861 221 119 59 199 152 224 264 16 68 14 211 -5 334 -19
127 -19 181 -2 181 8 0 41 -18 75 -39 233 -151 430 -233 712 -296 63 -15 120
-31 127 -37 23 -19 14 -94 -28 -230 -60 -194 -79 -290 -79 -398 0 -143 35
-245 116 -338 153 -178 519 -295 924 -296 152 -1 187 2 265 23 251 65 425 229
493 466 47 161 54 376 16 460 -26 56 -27 297 -1 403 48 199 131 336 229 376
48 20 92 20 152 0 41 -14 53 -26 98 -93 216 -322 559 -713 780 -892 164 -132
277 -195 438 -247 182 -58 246 -67 470 -66 189 0 213 2 301 26 259 70 373 171
386 343 13 161 -97 388 -293 605 -98 109 -164 210 -263 401 -371 718 -487
1552 -350 2514 30 210 73 422 144 705 99 395 131 663 122 1014 -9 356 -68 593
-213 851 -128 229 -135 244 -141 299 -7 69 7 97 119 244 262 343 443 711 507
1030 51 254 50 462 -5 824 -16 103 -27 219 -28 288 -1 111 0 118 30 175 18 33
48 92 68 130 89 172 135 515 152 1130 10 365 -27 1225 -54 1270 -5 8 -86 -48
-232 -158z"/>
</g>
</svg>
