<svg id="Capa_1" enable-background="new 0 0 512 512" height="512" viewBox="0 0 512 512" width="512" xmlns="http://www.w3.org/2000/svg"><g><g><path clip-rule="evenodd" d="m158.392 283.454c62.726-11.326 110.325-66.176 110.325-132.148 0-74.175-60.156-134.308-134.359-134.308s-134.358 60.134-134.358 134.308c0 65.972 47.57 120.822 110.296 132.148v122.894l-22.135-22.156c-2.365-2.335-6.22-2.335-8.556 0l-25.435 25.426c-2.365 2.364-2.365 6.218 0 8.553l46.168 46.18 27.1 27.06c2.365 2.394 4.643 3.591 6.921 3.591 2.249 0 4.526-1.197 6.921-3.591l27.07-27.06 46.198-46.18c2.336-2.335 2.336-6.189 0-8.553l-25.435-25.425c-2.365-2.335-6.22-2.335-8.556 0l-22.164 22.156v-122.895zm62.23-132.148c0 47.611-38.634 86.23-86.263 86.23-47.658 0-86.292-38.62-86.292-86.23 0-47.64 38.634-86.26 86.292-86.26 47.628.001 86.263 38.62 86.263 86.26z" fill="#8ac9fe" fill-rule="evenodd"/></g><g><path clip-rule="evenodd" d="m512 360.402c-.146-65.826-47.687-120.559-110.325-131.856v-101.235h31.947c3.008 0 5.49-2.452 5.49-5.488v-37.102c0-3.007-2.482-5.459-5.49-5.459h-31.947v-41.684c0-3.036-2.453-5.488-5.49-5.488h-37.116c-3.008 0-5.461 2.452-5.461 5.488v41.685h-31.976c-3.008 0-5.461 2.452-5.461 5.459v37.102c0 3.036 2.453 5.488 5.461 5.488h31.976v101.235c-62.755 11.326-110.325 66.176-110.325 132.148 0 74.175 60.156 134.308 134.359 134.308 74.115 0 134.184-59.988 134.359-134.016v-.292-.293zm-134.359-85.939c47.658 0 86.263 38.591 86.263 86.23s-38.605 86.26-86.263 86.26-86.292-38.62-86.292-86.26 38.634-86.23 86.292-86.23z" fill="#fd4755" fill-rule="evenodd"/></g><g><path clip-rule="evenodd" d="m410.406 371.144c9.023-9.341 9.023-24.608 0-33.949-8.177-8.465-21.405-6.364-30.137 1.518-3.212 2.89-2.073 2.89-5.256 0-8.731-7.882-21.96-9.983-30.166-1.518-9.023 9.341-9.023 24.608 0 33.949l3.65 3.62 26.837 26.564c2.365 1.897 2.219 1.897 4.614 0l26.808-26.564z" fill="#ffa5c7" fill-rule="evenodd"/></g><g><path clip-rule="evenodd" d="m167.123 161.727c9.023-9.312 9.023-24.608 0-33.92-8.177-8.495-21.405-6.364-30.166 1.518-3.183 2.861-2.044 2.861-5.227 0-8.761-7.882-21.989-10.013-30.166-1.518-9.023 9.312-9.023 24.608 0 33.92l3.65 3.649 26.837 26.564c2.365 1.897 2.219 1.897 4.614 0l26.808-26.564z" fill="#ffa5c7" fill-rule="evenodd"/></g><g><path clip-rule="evenodd" d="m158.392 283.454c62.726-11.326 110.325-66.176 110.325-132.148 0-61.097-40.795-112.648-96.6-128.937 43.131 23.294 72.596 69.475 72.596 118.545 0 66.147-35.335 114.342-92.863 129.141-15.448 3.97-13.199 8.144-13.199 26.564v108.474 17.369c0 8.641 5.14 14.245 17.317 4.058l41.087-34.358-7.943-7.969c-2.365-2.335-6.22-2.335-8.556 0l-22.164 22.156z" fill="#22a6fe" fill-rule="evenodd"/></g><g><path clip-rule="evenodd" d="m401.674 79.263v-41.685c0-3.036-2.453-5.488-5.49-5.488h-20.179c3.008 0 5.49 2.452 5.49 5.488v185.743c0 8.378-1.548 18.098 6.162 19.762 159.998 34.212 121.627 241.031-20.12 251.54 3.329.263 6.716.379 10.104.379 74.115 0 134.184-59.988 134.359-134.016.058-64.979-46.285-120.88-110.325-132.44v-101.235h31.947c3.008 0 5.49-2.452 5.49-5.488v-37.102c0-3.007-2.482-5.459-5.49-5.459h-31.948z" fill="#e41e2b" fill-rule="evenodd"/></g><g><path clip-rule="evenodd" d="m410.406 371.144c9.023-9.341 9.023-24.608 0-33.949-6.775-7.035-17.054-6.772-25.347-1.956.701 3.941 1.051 8.028 1.051 12.202 0 18.536-7.184 35.117-18.514 46.239l7.739 7.648c2.365 1.897 2.219 1.897 4.614 0l26.808-26.564z" fill="#fe76a8" fill-rule="evenodd"/></g><g><path clip-rule="evenodd" d="m167.123 161.727c9.023-9.312 9.023-24.608 0-33.92-6.454-6.714-16.09-6.802-24.15-2.656 4.117 6.889 6.483 15.004 6.483 23.732 0 16.697-8.731 31.264-21.639 38.853l4.234 4.204c2.365 1.897 2.219 1.897 4.614 0l26.808-26.564z" fill="#fe76a8" fill-rule="evenodd"/></g></g></svg>