<svg id="Capa_1" enable-background="new 0 0 512 512" height="512" viewBox="0 0 512 512" width="512" xmlns="http://www.w3.org/2000/svg" xmlns:xlink="http://www.w3.org/1999/xlink"><linearGradient id="SVGID_1_" gradientUnits="userSpaceOnUse" x1="256" x2="256" y1="158.934" y2="0"><stop offset="0" stop-color="#ffc2cc"/><stop offset="1" stop-color="#fff2f4"/></linearGradient><linearGradient id="SVGID_2_" gradientUnits="userSpaceOnUse" x1="256" x2="256" y1="512" y2="91.074"><stop offset="0" stop-color="#fd3a84"/><stop offset="1" stop-color="#ffa68d"/></linearGradient><g id="Bouquet_3_"><g><g><path d="m371.499 359.2c-5.702 5.7-5.702 15.3 0 21.299 6.002 5.7 6.002 15.3 0 21-5.702 6-15.297 6-20.999 0l-18.6-18.6c-6.899-6.599-14.7-12.001-23.101-15.601l-29.999-36.298h-45.6l-30 36.299c-8.401 3.6-16.201 9.001-23.101 15.601l-18.6 18.6c-5.702 6-15.297 6-20.999 0-6.002-5.7-6.002-15.3 0-21 5.702-5.999 5.702-15.599 0-21.299-6.002-6-15.601-6-21.303 0-17.699 17.398-17.699 46.199 0 63.6 17.102 17.101 46.501 17.101 63.604 0l18.596-18.6c2.703-2.701 5.702-5.102 9.001-6.901l22.802 23.7h45.6l22.8-23.701c3.3 1.8 6.299 4.2 9.001 6.901l18.596 18.6c8.401 8.399 19.801 13.2 31.802 13.2s23.401-4.801 31.802-13.2c17.699-17.4 17.699-46.201 0-63.6-5.701-6-15.3-6-21.302 0zm-130.507-270.963v17.763c0 8.291 6.709 15 15 15s15-6.709 15-15v-17.763c17.424-6.212 30-22.707 30-42.237v-31c0-8.291-6.709-15-15-15h-60c-8.291 0-15 6.709-15 15v31c0 19.53 12.575 36.024 30 42.237zm-92.57 45.156c6.584 0 12.993-1.835 19.065-4.698l26.492 26.48c5.859 5.859 15.352 5.859 21.211 0s5.859-15.352 0-21.211l-26.272-26.259c2.849-5.965 4.504-12.471 4.504-19.283 0-12.012-4.688-23.32-13.184-31.816l-21.211-21.211c-5.859-5.859-15.352-5.859-21.211 0l-42.422 42.421c-5.859 5.859-5.859 15.352 0 21.211l21.211 21.211c8.76 8.775 20.303 13.155 31.817 13.155zm268.183-55.577-42.422-42.422c-5.859-5.859-15.352-5.859-21.211 0l-21.211 21.211c-8.496 8.496-13.184 19.805-13.184 31.816 0 6.812 1.655 13.313 4.504 19.281l-26.272 26.261c-5.859 5.859-5.859 15.352 0 21.211s15.352 5.859 21.211 0l26.492-26.48c6.072 2.863 12.48 4.698 19.065 4.698 11.514 0 23.057-4.38 31.816-13.154l21.211-21.211c5.861-5.859 5.861-15.351.001-21.211z" fill="url(#SVGID_1_)"/></g></g><path d="m385.002 183.999-120-90c-5.402-3.9-12.601-3.9-18.003 0l-120 90c-3.897 2.701-5.999 7.2-5.999 12.001 0 45.599 24.302 80.099 47.703 113.699 13.499 19.2 26.697 37.8 34.497 57.599 9.302-4.199 19.501-6.299 30-6.299h45.6c10.499 0 20.698 2.1 30 6.299 7.8-19.799 20.999-38.399 34.497-57.599 23.401-33.6 47.703-68.1 47.703-113.699 0-4.801-2.102-9.3-5.998-12.001zm-84.002 222.001c0-3.001 0-6 .601-8.701-6.899-4.199-14.7-6.299-22.8-6.299h-45.601c-8.101 0-15.901 2.1-22.8 6.299.6 2.701.6 5.7.6 8.701 0 13.799-5.999 24.899-13.198 37.8-7.8 14.4-16.802 31.899-16.802 53.2 0 8.399 6.599 15 15 15h120c8.401 0 15-6.601 15-15 0-21.301-9.001-38.8-16.802-53.2-7.199-12.901-13.198-24.001-13.198-37.8z" fill="url(#SVGID_2_)"/></g></svg>