<?xml version="1.0" encoding="iso-8859-1"?>
<!-- Generator: Adobe Illustrator 19.0.0, SVG Export Plug-In . SVG Version: 6.00 Build 0)  -->
<svg version="1.1" id="Capa_1" xmlns="http://www.w3.org/2000/svg" xmlns:xlink="http://www.w3.org/1999/xlink" x="0px" y="0px"
	 viewBox="0 0 190.052 190.052" style="enable-background:new 0 0 190.052 190.052;" xml:space="preserve">
<g>
	<path style="fill:#E1E1E1;" d="M184.881,112.682c0,0-1.65-2.91-3.931-3.671c0,0-3.92,17.351-17.1,33.561c0,0-0.59-5.07-1.43-6.42
		c0,0-35.78,16.04-41.87,31.75l-2.271-7.351c0,0-22.56,6.12-24.06,21.57c-0.021,0.14-0.12,0.21-0.22,0.2
		c-0.101,0-0.19-0.061-0.211-0.2c-1.5-15.45-26.279-21.57-26.279-21.57l-2.26,7.351c-6.1-15.71-41.88-31.75-41.88-31.75
		c-0.84,1.35-1.43,6.42-1.43,6.42c-13.17-16.21-17.1-33.561-17.1-33.561c-2.28,0.761-3.92,3.671-3.92,3.671
		c0.14-17.841,7.76-32.221,14.38-41.37c1.76-2.42,3.44-4.48,4.9-6.13c0.5-0.58,0.98-1.101,1.43-1.58
		c2.02-2.181,3.35-3.341,3.35-3.341l1.13,0.04l7.59,0.23l4.57,0.14l8.26,0.261l46.21,1.439c0,0,0.08,15.74,0.15,36.13
		c0.08-20.39,0.16-36.13,0.16-36.13l0.95-0.03l49.42-1.54l8.279-0.26l2.11-0.059l7-0.221c0,0,3.14,2.74,7.16,7.75
		c0.02,0.03,0.04,0.07,0.069,0.101c0.101,0.109,0.191,0.229,0.29,0.35c0.811,1.021,1.65,2.141,2.5,3.34
		c0.77,1.08,1.561,2.23,2.341,3.45C179.011,84.361,184.751,97.232,184.881,112.682z"/>
	<path style="fill:#E1E1E1;" d="M173.171,75.251c-0.08,0.2-0.16,0.41-0.25,0.61c0,0.01,0,0.01,0,0.019
		c-0.101,0.231-0.19,0.46-0.28,0.69c-3.45,8.46-6.021,14.189-6.021,14.189l-23.199-29.96l-20.881-26.97c0,0,0.65-0.41,1.83-1.13
		c8.761-5.33,46.601-27.67,61.261-24.7C197.561,10.421,182.591,51.961,173.171,75.251z"/>
	<path style="fill:#ED7994;" d="M140.539,43.613c0,0,29.792-30.413,41.622-28.017c11.829,2.395-18.646,62.878-18.646,62.878
		L140.539,43.613z"/>
	<path style="fill:#F1F2F2;" d="M67.514,33.834c0,0-46.464-29.201-63.093-25.834c-16.63,3.367,19.01,82.758,19.01,82.758
		L67.514,33.834z"/>
	<path style="fill:#ED7994;" d="M49.515,43.613c0,0-29.79-30.413-41.621-28.017C-3.936,17.992,26.54,78.475,26.54,78.475
		L49.515,43.613z"/>
	<path style="fill:#E1E1E1;" d="M133.391,145.482c-1.47,0.88-17.59,15.059-39.39,15.069c-21.8-0.01-37.911-14.189-39.391-15.069
		c-19.63-11.691-48.88-26.931-47.19-46.351c0.65-7.42,3.23-15.09,7.26-22.54c0.51-0.939,1.05-1.88,1.6-2.819
		c1.42-2.37,2.97-4.7,4.65-7c1.62-2.2,3.35-4.36,5.18-6.471c6.13-7.029,13.41-13.449,21.32-18.76c4.56-3.059,9.34-5.76,14.22-7.97
		c0.27-0.13,0.54-0.25,0.81-0.37c0.79-0.35,1.59-0.68,2.4-0.99c9.02-3.47,18.851-4.45,29.141-4.46
		c10.77,0.01,21.02,1.08,30.369,4.95c0.391,0.16,0.79,0.33,1.181,0.5c0,0,0.01,0,0.029,0.01c5.591,2.48,11.04,5.58,16.21,9.15
		c10.231,7.07,19.341,16,26.181,25.649c0.02,0.03,0.04,0.07,0.069,0.101c0.091,0.13,0.181,0.26,0.271,0.39
		c1.65,2.36,3.16,4.771,4.52,7.2c0,0,0,0.01,0.011,0.01c0.029,0.05,0.05,0.101,0.08,0.15c4.27,7.67,7,15.6,7.67,23.269
		C182.271,118.551,153.021,133.791,133.391,145.482z"/>
	<g>
		<circle style="fill:#D1F2FF;" cx="127.445" cy="93.938" r="12.284"/>
		<path style="fill:#050403;" d="M134.37,95.258c-1.27,6.664-8.854,10.813-9.226,10.746c-0.355-0.063-5.895-6.723-4.624-13.388
			c1.27-6.663,9.226-10.745,9.226-10.745C130.055,82.532,135.642,88.594,134.37,95.258z"/>
		<circle style="fill:#FFFFFF;" cx="131.773" cy="91.561" r="2.554"/>
		<circle style="fill:#FFFFFF;" cx="122.54" cy="95.022" r="1.983"/>
		<path style="fill:#CCCCCC;" d="M109.599,96.545c4.661-6.108,16.978-15.682,30.134-4.984l7.16-3.482c0,0-9.041-10.389-24.694-5.827
			c-15.652,4.563-21.16,25.46-20.92,28.771l2.643,3.143C103.921,114.164,101.902,106.629,109.599,96.545z"/>
	</g>
	<g>
		<circle style="fill:#D1F2FF;" cx="60.625" cy="93.938" r="12.284"/>
		<path style="fill:#050403;" d="M53.7,95.258c1.27,6.664,8.854,10.813,9.226,10.746c0.354-0.063,5.894-6.723,4.624-13.388
			c-1.271-6.663-9.226-10.745-9.226-10.745C58.016,82.532,52.429,88.594,53.7,95.258z"/>
		<circle style="fill:#FFFFFF;" cx="56.298" cy="91.561" r="2.554"/>
		<circle style="fill:#FFFFFF;" cx="65.53" cy="95.022" r="1.984"/>
		<path style="fill:#CCCCCC;" d="M78.472,96.545c-4.662-6.108-16.978-15.682-30.133-4.984l-7.161-3.482
			c0,0,9.042-10.389,24.694-5.827c15.652,4.563,21.162,25.46,20.921,28.771l-2.644,3.143
			C84.149,114.164,86.168,106.629,78.472,96.545z"/>
	</g>
	<g>
		<path style="fill:#CCCCCC;" d="M119.279,127.825c0,7.233-4.866,11.906-12.1,11.906c-7.232,0-14.092-9.114-14.092-16.349
			c0-7.232,5.861-8.654,13.095-8.654C113.416,114.729,119.279,120.594,119.279,127.825z"/>
		<path style="fill:#CCCCCC;" d="M68.804,127.825c0,7.233,4.865,11.906,12.099,11.906c7.233,0,14.092-9.114,14.092-16.349
			c0-7.232-5.863-8.654-13.097-8.654C74.666,114.729,68.804,120.594,68.804,127.825z"/>
	</g>
	<g>
		<path style="fill:#FFFFFF;" d="M122.004,125.332c0,7.439-5.393,12.248-13.407,12.248c-8.011,0-15.613-9.375-15.613-16.818
			c0-7.438,6.494-8.902,14.509-8.902C115.508,111.859,122.004,117.893,122.004,125.332z"/>
		<path style="fill:#FFFFFF;" d="M66.079,125.332c0,7.439,5.391,12.248,13.406,12.248c8.013,0,15.612-9.375,15.612-16.818
			c0-7.438-6.495-8.902-14.507-8.902C72.575,111.859,66.079,117.893,66.079,125.332z"/>
	</g>
	<path style="fill:#ED7994;" d="M101.755,110.092H86.211c-4.197,0-7.686,4.597-4.078,6.473c2.07,1.076,6.367,0.836,7.059,3.751
		c1.308,5.493,3.726,6.662,4.758,6.71v0.006c0.012,0,0.068-0.006,0.068-0.006c1.031-0.048,3.446-1.217,4.755-6.71
		c0.694-2.915,4.991-2.675,7.062-3.751C109.439,114.689,105.953,110.092,101.755,110.092z"/>
	<path style="fill:#E1E1E1;" d="M125.546,33.199c0,0,31.298,10.66,39.114,18.046c0,0-6.966,0.021-8.864-0.613
		c-1.9-0.635,9.25,5.925,12.536,10.005h-4.389c0,0,4.945,6.871,8.891,15.067C176.778,83.899,125.546,33.199,125.546,33.199z"/>
	<path style="fill:#E1E1E1;" d="M62.021,33.199c0,0-31.299,10.66-39.114,18.046c0,0,6.965,0.021,8.865-0.613
		c1.899-0.635-9.251,5.925-12.537,10.005h4.39c0,0-4.947,6.871-8.891,15.067C10.788,83.899,62.021,33.199,62.021,33.199z"/>
	<path style="opacity:0.6;fill:#F1F2F2;" d="M173.171,75.251c5.84,9.11,11.58,21.98,11.71,37.431c0,0-1.65-2.91-3.931-3.671
		c0,0-3.92,17.351-17.1,33.561c0,0-0.59-5.07-1.43-6.42c0,0-35.78,16.04-41.87,31.75l-2.271-7.351c0,0-22.56,6.12-24.06,21.57
		c-0.021,0.14-0.12,0.21-0.22,0.2V27.751c10.77,0.01,21.02,1.08,30.369,4.95c8.761-5.33,46.601-27.67,61.261-24.7
		C197.561,10.421,182.591,51.961,173.171,75.251z"/>
</g>
<g>
</g>
<g>
</g>
<g>
</g>
<g>
</g>
<g>
</g>
<g>
</g>
<g>
</g>
<g>
</g>
<g>
</g>
<g>
</g>
<g>
</g>
<g>
</g>
<g>
</g>
<g>
</g>
<g>
</g>
</svg>
