<svg t="1593609275438" fill="#fff" class="icon" viewBox="0 0 1024 1024" version="1.1" xmlns="http://www.w3.org/2000/svg" p-id="6707" width="200" height="200"><path d="M857.907 666.88c-66.457 0-120.832 36.506-146.176 93.184L390.298 619.776c18.739-29.747 29.081-66.253 29.081-105.626 0-16.332-1.894-32.665-5.632-48.025l205.21-163.328a162.304 162.304 0 0 0 100.3 33.638c92.775 0 162.1-71.117 162.1-165.222 0-94.157-69.325-165.223-162.1-165.223-92.774 0-161.177 71.066-161.177 165.223 0 24.064 4.66 46.08 12.186 65.331l-189.338 148.89c-37.478-57.652-99.328-97.997-169.626-97.997C96.768 287.13 3.584 382.157 3.277 499.712v1.024C3.072 618.24 95.795 713.728 210.38 713.933h0.921c43.11 0 83.405-11.469 116.224-32.615L696.781 842.65c4.659 89.344 72.192 155.648 161.126 155.648 92.826 0 161.229-71.066 161.229-165.223S949.76 666.88 857.958 666.88z" p-id="6708"></path></svg>
