<svg id="Capa_1" enable-background="new 0 0 501.65 501.65" height="512" viewBox="0 0 501.65 501.65" width="512" xmlns="http://www.w3.org/2000/svg">
  <g>
    <g>
      <path d="m361.295 103.054h-75.465v-42.465c0-3.486 2.826-6.312 6.311-6.312h62.843c3.486 0 6.311 2.826 6.311 6.312z" fill="#4ea696"/>
    </g>
    <g>
      <circle cx="323.563" cy="269.285" fill="#64d1ad" r="178.087"/>
    </g>
    <g>
      <path d="m323.563 91.198c-5.053 0-10.054.222-15 .635 91.333 7.619 163.087 84.151 163.087 177.452 0 93.302-71.754 169.834-163.087 177.453 4.946.413 9.947.634 15 .634 98.355 0 178.087-79.732 178.087-178.087s-79.733-178.087-178.087-178.087z" fill="#55c2a3"/>
    </g>
    <g>
      <circle cx="323.563" cy="269.285" fill="#f7f7f7" r="132.501"/>
    </g>
    <g>
      <path d="m323.563 136.783c-5.073 0-10.076.295-15 .85 66.115 7.451 117.501 63.546 117.501 131.651 0 68.106-51.387 124.2-117.501 131.651 4.924.555 9.927.85 15 .85 73.179 0 132.501-59.323 132.501-132.501s-59.323-132.501-132.501-132.501z" fill="#e8e8e8"/>
    </g>
    <path
      d="m323.563 129.283c-77.197 0-140.002 62.804-140.002 140.002s62.805 140.001 140.002 140.001 140.001-62.804 140.001-140.001-62.804-140.002-140.001-140.002zm104.238 147.502h20.531c-1.715 28.828-13.242 55.054-31.283 75.38l-14.475-14.475c-2.93-2.929-7.678-2.929-10.607 0s-2.929 7.678 0 10.606l14.476 14.476c-20.327 18.041-46.552 29.568-75.38 31.283v-20.531c0-4.142-3.357-7.5-7.5-7.5s-7.5 3.358-7.5 7.5v20.531c-28.829-1.715-55.054-13.242-75.381-31.283l14.476-14.475c2.929-2.929 2.929-7.678 0-10.606-2.93-2.93-7.678-2.929-10.606 0l-14.476 14.475c-18.041-20.327-29.568-46.552-31.283-75.381h20.531c4.142 0 7.5-3.358 7.5-7.5s-3.358-7.5-7.5-7.5h-20.531c1.715-28.828 13.242-55.054 31.283-75.381l14.476 14.476c1.464 1.465 3.384 2.197 5.303 2.197s3.839-.732 5.303-2.197c2.929-2.929 2.929-7.678 0-10.606l-14.476-14.476c20.327-18.041 46.553-29.568 75.381-31.283v20.531c0 4.142 3.357 7.5 7.5 7.5s7.5-3.358 7.5-7.5v-20.531c28.828 1.715 55.054 13.242 75.38 31.283l-14.476 14.476c-2.929 2.929-2.929 7.678 0 10.606 1.465 1.464 3.385 2.197 5.304 2.197s3.839-.732 5.304-2.197l14.475-14.476c18.04 20.327 29.568 46.552 31.282 75.38h-20.531c-4.143 0-7.5 3.358-7.5 7.5s3.358 7.501 7.5 7.501z"
      fill="#57b59a"/>
    <path d="m355.98 234.217c-2.929-2.929-7.677-2.929-10.608 0l-14.31 14.309v-36.524c0-4.142-3.357-7.5-7.5-7.5s-7.5 3.358-7.5 7.5v55.035c0 4.142 3.357 7.5 7.5 7.5 2.814 0 5.262-1.551 6.545-3.843l25.872-25.872c2.93-2.928 2.93-7.677.001-10.605z" fill="#57b59a"/>
    <g>
      <g>
        <path d="m103.175 278.478h-95.675c-4.142 0-7.5-3.358-7.5-7.5s3.358-7.5 7.5-7.5h95.675c4.142 0 7.5 3.358 7.5 7.5s-3.358 7.5-7.5 7.5z" fill="#ebe1dc"/>
      </g>
      <g>
        <path d="m113.175 234.8h-75.761c-4.142 0-7.5-3.358-7.5-7.5s3.358-7.5 7.5-7.5h75.762c4.142 0 7.5 3.358 7.5 7.5-.001 4.142-3.359 7.5-7.501 7.5z" fill="#ebe1dc"/>
      </g>
      <g>
        <path d="m123.175 191.12h-62.133c-4.142 0-7.5-3.358-7.5-7.5s3.358-7.5 7.5-7.5h62.133c4.142 0 7.5 3.358 7.5 7.5s-3.358 7.5-7.5 7.5z" fill="#ebe1dc"/>
      </g>
      <g>
        <path d="m113.175 318.771h-75.761c-4.142 0-7.5-3.358-7.5-7.5s3.358-7.5 7.5-7.5h75.762c4.142 0 7.5 3.358 7.5 7.5-.001 4.142-3.359 7.5-7.501 7.5z" fill="#ebe1dc"/>
      </g>
      <g>
        <path d="m123.175 362.449h-62.133c-4.142 0-7.5-3.358-7.5-7.5s3.358-7.5 7.5-7.5h62.133c4.142 0 7.5 3.358 7.5 7.5 0 4.143-3.358 7.5-7.5 7.5z" fill="#ebe1dc"/>
      </g>
    </g>
  </g>
</svg>
